<svg version="1.1" id="Layer_1" xmlns="http://www.w3.org/2000/svg" xmlns:xlink="http://www.w3.org/1999/xlink" x="0px" y="0px"
	 width="100%" viewBox="0 0 816 256" enable-background="new 0 0 816 256" xml:space="preserve">
<path fill="#000000" opacity="1.000000" stroke="none" 
	d="
M290.125305,135.291290 
	C296.050659,130.978531 297.182404,124.643944 298.534454,118.472183 
	C298.994232,116.373283 298.615295,113.738678 301.813080,113.966866 
	C304.730713,114.175056 304.261597,116.685326 304.266541,118.592484 
	C304.308289,134.752319 304.305969,150.912308 304.283752,167.072205 
	C304.281067,169.028534 304.602234,171.424469 301.764221,171.699921 
	C299.095520,171.958923 298.666077,169.773315 298.143372,167.785568 
	C293.745483,151.060730 290.226532,148.358047 272.928833,148.358978 
	C262.766388,148.359528 252.601654,148.483704 242.442612,148.297318 
	C238.517822,148.225311 237.239670,149.641953 237.272552,153.541977 
	C237.429764,172.199600 237.297333,190.859467 237.382278,209.518005 
	C237.415253,216.758240 240.291946,220.430679 246.857086,220.488861 
	C260.504486,220.609818 274.154083,220.649918 287.812775,220.302048 
	C302.557434,219.926529 311.826019,211.897781 319.131012,200.366837 
	C321.178558,197.134781 323.087799,193.810730 324.951263,190.467957 
	C326.161621,188.296692 327.863525,186.934097 330.207703,188.109756 
	C332.469482,189.244080 331.157745,191.314545 330.604553,192.956482 
	C326.780884,204.306213 322.828918,215.613434 319.097260,226.993027 
	C317.985474,230.383423 315.576385,230.392746 312.799408,230.389542 
	C286.310394,230.359009 259.821350,230.374893 233.332306,230.374908 
	C220.337677,230.374924 207.342941,230.397552 194.348572,230.337494 
	C192.323593,230.328140 189.385223,231.036102 189.247787,227.889999 
	C189.101822,224.548782 192.035950,224.698364 194.357620,224.750305 
	C197.392502,224.818176 200.332916,224.466675 203.200729,223.477142 
	C208.124039,221.778366 211.702927,218.885178 212.122910,213.275604 
	C212.445618,208.964905 212.920242,204.648483 212.927078,200.333969 
	C212.983856,164.515564 212.965378,128.696976 212.912201,92.878540 
	C212.906784,89.223488 212.767334,85.535477 212.269302,81.920731 
	C210.945557,72.312805 206.918243,68.818253 197.086609,68.376236 
	C195.423264,68.301460 193.755295,68.334496 192.090973,68.275055 
	C190.325165,68.211975 189.201462,67.279716 189.223267,65.506721 
	C189.241806,63.998661 190.296188,63.089020 191.769653,62.881702 
	C192.917297,62.720222 194.092468,62.708637 195.255432,62.708416 
	C234.072708,62.700985 272.890289,62.776062 311.706848,62.610069 
	C316.504883,62.589554 318.161316,64.249748 318.316895,68.883186 
	C318.629456,78.191559 319.618408,87.475311 319.358612,96.808586 
	C319.308472,98.610397 319.763763,100.739037 317.019653,100.911835 
	C314.788208,101.052338 313.807404,99.647362 313.311981,97.643051 
	C312.514587,94.417053 311.693481,91.191742 310.724701,88.014214 
	C307.833679,78.531662 301.567871,73.486816 291.715759,73.336624 
	C275.227020,73.085258 258.732849,73.213028 242.242401,73.041367 
	C238.665955,73.004143 237.237366,74.132629 237.267822,77.921387 
	C237.417877,96.579109 237.326294,115.238724 237.341766,133.897644 
	C237.343536,136.025436 236.937225,138.613083 240.258942,138.576141 
	C253.405579,138.429977 266.567108,139.290604 279.696289,138.126846 
	C283.181885,137.817902 286.585419,136.939957 290.125305,135.291290 
z"/>
<path fill="#000000" opacity="1.000000" stroke="none" 
	d="
M785.322998,74.271454 
	C752.009155,122.260902 718.898987,169.954681 686.019287,217.316483 
	C686.721069,218.998734 687.632507,218.974304 688.426208,218.973480 
	C711.254456,218.949768 734.082947,218.954468 756.910828,218.838989 
	C768.971985,218.777985 777.426514,212.782303 782.696228,202.214386 
	C784.991028,197.612396 786.785339,192.756271 788.707764,187.975647 
	C789.380737,186.302002 790.112183,184.763336 792.204956,185.272888 
	C794.286255,185.779633 794.465820,187.643585 794.170593,189.319244 
	C791.921082,202.086136 789.575745,214.836075 787.288208,227.596329 
	C786.804016,230.297455 784.806702,230.355804 782.740540,230.358337 
	C774.908386,230.367966 767.076233,230.375366 759.244080,230.375595 
	C725.249084,230.376556 691.254150,230.390579 657.259216,230.334381 
	C655.224060,230.331009 652.653870,231.290665 651.325867,228.930328 
	C649.945984,226.477722 651.695435,224.441208 652.997009,222.552841 
	C664.717163,205.548050 676.446716,188.549469 688.240967,171.595993 
	C708.595886,142.336960 729.022217,113.127609 749.347351,83.847939 
	C751.464417,80.798172 754.360046,78.141052 755.217346,74.316475 
	C753.393555,72.825508 751.483521,73.385765 749.726929,73.379517 
	C734.562683,73.325531 719.396851,73.229149 704.234558,73.409325 
	C699.607361,73.464310 694.893250,73.910057 690.387085,74.923897 
	C679.545776,77.363091 675.504578,85.743317 673.390625,95.547745 
	C672.865417,97.983482 672.489502,100.454994 671.875000,102.866745 
	C671.389832,104.770576 669.974609,105.535599 668.048462,105.160393 
	C666.112793,104.783340 665.906677,103.279472 666.032776,101.702988 
	C666.946960,90.269676 667.959961,78.843643 668.777832,67.403595 
	C669.036987,63.778530 670.712769,62.639877 674.217407,62.647293 
	C711.878296,62.727005 749.539490,62.691025 787.200562,62.713013 
	C788.632996,62.713848 790.251770,62.317539 791.532104,64.140343 
	C790.737122,67.999466 787.389709,70.565041 785.322998,74.271454 
z"/>
<path fill="#000000" opacity="1.000000" stroke="none" 
	d="
M554.167603,138.642120 
	C566.123474,138.338150 577.676147,139.671585 589.069275,138.009430 
	C601.848083,136.145096 605.962036,131.397614 607.633789,118.474625 
	C607.697754,117.980148 607.696289,117.477356 607.729187,116.978691 
	C607.857544,115.032890 608.747559,113.822548 610.843079,113.909470 
	C612.832764,113.991997 613.250549,115.402199 613.275696,117.027374 
	C613.319397,119.859070 613.329651,122.691483 613.330078,125.523598 
	C613.332214,139.352127 613.348633,153.180740 613.296814,167.009094 
	C613.289856,168.869064 613.953247,171.408676 610.903748,171.592026 
	C608.260376,171.750961 607.944641,169.692413 607.440613,167.615829 
	C603.486938,151.326736 599.594177,148.360413 582.518799,148.362579 
	C572.189087,148.363892 561.857361,148.486374 551.530579,148.313171 
	C547.637573,148.247864 546.266846,149.632721 546.320923,153.547821 
	C546.580811,172.365509 546.569458,191.186813 546.778320,210.005447 
	C546.857971,217.183655 549.455139,220.426056 556.008057,220.510666 
	C569.658325,220.686935 583.315002,220.270874 596.969299,220.249481 
	C611.188721,220.227188 620.578064,212.536453 627.728882,201.210144 
	C629.949280,197.693130 632.025208,194.082657 634.093811,190.472900 
	C635.312622,188.345978 636.987061,186.995529 639.386169,188.065506 
	C641.939880,189.204407 640.336182,191.195419 639.795654,192.789322 
	C636.003479,203.970963 632.068848,215.105255 628.386414,226.322540 
	C627.374207,229.405807 625.649109,230.411346 622.533936,230.406052 
	C582.714539,230.338303 542.895020,230.365341 503.075531,230.338043 
	C501.162201,230.336731 498.645782,230.792130 498.512054,227.841827 
	C498.368256,224.670456 500.902863,224.761734 503.098755,224.723114 
	C505.760559,224.676285 508.381165,224.652405 511.000732,223.865509 
	C518.582825,221.587891 521.199402,218.114655 521.726868,210.239288 
	C523.978699,176.619431 521.531311,142.988892 522.035095,109.364624 
	C522.161743,100.910576 522.648926,92.466484 521.821228,83.956177 
	C520.768921,73.135986 516.765686,68.712425 505.813660,68.354927 
	C504.315491,68.306023 502.815613,68.307976 501.316498,68.290764 
	C499.524536,68.270172 498.434509,67.415871 498.463196,65.582214 
	C498.491425,63.776398 499.654602,62.909142 501.361755,62.789394 
	C502.689087,62.696293 504.025055,62.705051 505.357178,62.705002 
	C543.677185,62.703629 581.997253,62.704224 620.317261,62.711823 
	C627.147705,62.713177 627.006348,62.844734 627.388672,69.698509 
	C627.889160,78.671242 628.515808,87.631203 628.372437,96.625259 
	C628.344299,98.390625 629.047058,100.551025 626.276245,100.849495 
	C623.711060,101.125809 622.887329,99.396767 622.366028,97.254951 
	C621.541565,93.867538 620.700073,90.473930 619.632385,87.158119 
	C616.855164,78.533218 610.503967,73.492203 601.522278,73.361206 
	C584.699097,73.115852 567.871033,73.230003 551.045837,73.086998 
	C547.693542,73.058510 546.306274,74.183517 546.328857,77.722954 
	C546.448059,96.382355 546.542664,115.045227 546.283264,133.701859 
	C546.196350,139.954773 550.262939,138.459152 554.167603,138.642120 
z"/>
<path fill="#000000" opacity="1.000000" stroke="none" 
	d="
M77.548317,138.591095 
	C85.355896,156.620132 92.988464,174.311401 100.513779,191.754059 
	C102.868248,191.885620 102.829140,190.354416 103.212517,189.414551 
	C116.104660,157.809128 128.979141,126.196419 141.772324,94.550873 
	C143.076660,91.324471 143.970291,87.915733 144.854492,84.539238 
	C146.682068,77.560242 144.511536,73.349777 137.790024,70.780800 
	C135.934097,70.071465 133.945999,69.711273 132.025040,69.167923 
	C129.997787,68.594498 128.228958,67.849731 128.557816,65.152206 
	C128.886185,62.458607 130.871826,62.725857 132.672150,62.719185 
	C140.337952,62.690765 148.003922,62.704899 155.669830,62.706913 
	C162.502472,62.708710 169.335175,62.699841 176.167709,62.730034 
	C177.859268,62.737507 179.613388,62.808174 180.071960,64.975479 
	C180.560135,67.282669 179.217239,68.525932 177.260071,68.948280 
	C165.229813,71.544319 160.085205,80.995193 155.972717,90.970383 
	C137.512909,135.746216 119.310196,180.628036 101.010666,225.469940 
	C100.381439,227.011795 99.712433,228.537506 99.055870,230.068146 
	C98.316490,231.791840 97.550407,233.300964 95.207405,233.360931 
	C92.735046,233.424210 91.613701,232.077072 90.762650,230.107574 
	C87.460037,222.464554 84.137924,214.829956 80.823723,207.191956 
	C63.131748,166.418610 45.365124,125.677368 27.807222,84.846367 
	C24.004519,76.003159 18.171640,70.278908 8.392348,68.966751 
	C6.508414,68.713966 4.016381,68.422005 4.157313,65.674881 
	C4.312066,62.658344 6.803530,62.715816 9.007776,62.714714 
	C28.505865,62.704967 48.003986,62.696739 67.502014,62.733776 
	C69.414062,62.737408 71.764214,62.303982 72.164467,65.205910 
	C72.603706,68.390457 70.098366,68.730125 68.023300,68.988976 
	C53.332783,70.821526 51.925823,77.275429 56.866192,90.003616 
	C63.186462,106.286919 70.492233,122.187698 77.548317,138.591095 
z"/>
<path fill="#000000" opacity="1.000000" stroke="none" 
	d="
M369.000061,62.703049 
	C383.991119,62.700710 398.482117,62.694714 412.973145,62.701923 
	C414.303497,62.702587 415.648407,62.680573 416.960510,62.859703 
	C418.721466,63.100105 419.541901,64.252502 419.409088,66.017990 
	C419.283264,67.691460 418.147491,68.171638 416.669678,68.307022 
	C413.526215,68.594994 410.369843,68.818420 407.251038,69.284431 
	C396.724304,70.857330 392.379822,75.777885 392.338135,86.377777 
	C392.228699,114.192833 392.181305,142.008209 392.158142,169.823502 
	C392.148010,181.981720 392.199219,194.140701 392.331787,206.298126 
	C392.430237,215.329483 395.699890,218.574371 404.779480,218.660706 
	C415.604889,218.763657 426.445312,218.381287 437.255005,218.813721 
	C457.601562,219.627701 470.551849,209.669296 478.359711,191.692429 
	C479.155060,189.861206 480.036591,188.067535 480.870667,186.253006 
	C481.626404,184.608932 482.671143,183.273468 484.691681,184.017227 
	C486.808960,184.796600 486.441284,186.710571 486.027954,188.279831 
	C485.266846,191.169312 484.218079,193.981888 483.333710,196.840256 
	C480.286438,206.689240 477.207733,216.529007 474.254913,226.406372 
	C473.410278,229.231781 471.837341,230.402802 468.849091,230.398514 
	C428.707428,230.340973 388.565643,230.367554 348.423889,230.341370 
	C346.499786,230.340118 344.009644,230.704102 343.932281,227.745880 
	C343.847687,224.511551 346.469238,224.707077 348.596771,224.746506 
	C353.160095,224.831085 357.555084,224.518509 361.440399,221.688110 
	C364.298767,219.605850 366.157684,216.862396 366.542328,213.442932 
	C367.136261,208.163101 367.636017,202.839920 367.653503,197.533401 
	C367.754364,166.886063 367.683105,136.238220 367.714508,105.590584 
	C367.722351,97.934029 367.533264,90.305092 366.827179,82.665474 
	C366.037598,74.122566 361.751160,69.404129 353.072144,68.421036 
	C352.412476,68.346313 351.710144,68.491882 351.081329,68.328461 
	C348.551971,67.671127 343.966980,70.150734 344.117615,65.346512 
	C344.246338,61.241558 348.490631,62.869453 351.013519,62.774231 
	C356.834961,62.554523 362.670349,62.703548 369.000061,62.703049 
z"/>
<path fill="#000000" opacity="1.000000" stroke="none" 
	d="
M251.965698,36.111641 
	C254.666122,27.304420 257.329834,18.905848 259.778748,10.445096 
	C260.746521,7.101537 262.365326,5.482013 266.109558,5.617068 
	C273.330536,5.877534 280.567596,5.693047 287.480835,5.693047 
	C288.360931,8.449148 287.096161,9.455627 286.146545,10.555409 
	C276.031891,22.269730 265.880798,33.952728 255.801270,45.697147 
	C254.006378,47.788536 252.183563,49.039688 249.218399,47.560467 
	C249.145737,43.583141 251.016983,40.152557 251.965698,36.111641 
z"/>
</svg>