<svg xmlns="http://www.w3.org/2000/svg" xmlns:svg="http://www.w3.org/2000/svg" width="1400" height="256" enable-background="new 0 0 816 256" version="1.1" xml:space="preserve" viewBox="0 0 1400 256">
 <g class="layer" display="inline">
  <title>Layer 1</title>
  <path d="m457.16,133.98c5.92,-4.31 7.05,-10.65 8.4,-16.82c0.46,-2.1 0.09,-4.73 3.28,-4.5c2.92,0.21 2.45,2.72 2.46,4.62c0.04,16.16 0.04,32.32 0.01,48.48c0,1.96 0.32,4.35 -2.52,4.63c-2.66,0.26 -3.09,-1.93 -3.62,-3.91c-4.39,-16.73 -7.91,-19.43 -25.21,-19.43c-10.16,0 -20.33,0.12 -30.49,-0.06c-3.92,-0.07 -5.2,1.34 -5.17,5.24c0.16,18.66 0.03,37.32 0.11,55.98c0.04,7.24 2.91,10.91 9.48,10.97c13.64,0.12 27.29,0.16 40.95,-0.19c14.75,-0.37 24.02,-8.4 31.32,-19.93c2.05,-3.24 3.96,-6.56 5.82,-9.9c1.21,-2.17 2.91,-3.54 5.26,-2.36c2.26,1.13 0.95,3.2 0.39,4.85c-3.82,11.35 -7.77,22.65 -11.5,34.03c-1.11,3.39 -3.52,3.4 -6.3,3.4c-26.49,-0.03 -52.98,-0.02 -79.47,-0.02c-12.99,0 -25.99,0.03 -38.98,-0.03c-2.03,-0.01 -4.96,0.7 -5.1,-2.45c-0.15,-3.34 2.79,-3.19 5.11,-3.14c3.03,0.07 5.97,-0.28 8.84,-1.27c4.92,-1.7 8.5,-4.59 8.92,-10.2c0.33,-4.32 0.8,-8.63 0.81,-12.95c0.05,-35.81 0.04,-71.63 -0.02,-107.45c0,-3.66 -0.14,-7.34 -0.64,-10.96c-1.32,-9.61 -5.35,-13.1 -15.18,-13.54c-1.67,-0.08 -3.33,-0.05 -5,-0.1c-1.76,-0.07 -2.89,-1 -2.87,-2.77c0.02,-1.51 1.08,-2.42 2.55,-2.63c1.15,-0.16 2.32,-0.17 3.49,-0.17c38.81,-0.01 77.63,0.07 116.45,-0.1c4.79,-0.02 6.45,1.64 6.61,6.27c0.31,9.31 1.3,18.6 1.04,27.93c-0.05,1.8 0.4,3.93 -2.34,4.1c-2.23,0.14 -3.21,-1.26 -3.71,-3.27c-0.8,-3.22 -1.62,-6.45 -2.59,-9.63c-2.89,-9.48 -9.15,-14.52 -19,-14.67c-16.49,-0.25 -32.99,-0.13 -49.48,-0.3c-3.57,-0.04 -5,1.09 -4.97,4.88c0.15,18.66 0.06,37.32 0.07,55.98c0,2.13 -0.4,4.71 2.92,4.68c13.15,-0.15 26.31,0.71 39.44,-0.45c3.48,-0.31 6.89,-1.19 10.43,-2.84z" fill="#000000" id="svg_1" opacity="1"></path>
  <path d="m1308.4,72.89c-33.31,47.99 -66.42,95.68 -99.3,143.05c0.7,1.68 1.61,1.65 2.41,1.65c22.82,-0.02 45.65,-0.02 68.48,-0.13c12.06,-0.06 20.52,-6.06 25.79,-16.63c2.29,-4.6 4.09,-9.45 6.01,-14.23c0.67,-1.68 1.4,-3.22 3.49,-2.71c2.09,0.51 2.27,2.37 1.97,4.05c-2.25,12.77 -4.59,25.52 -6.88,38.28c-0.49,2.7 -2.48,2.76 -4.55,2.76c-7.83,0.01 -15.66,0.02 -23.5,0.02c-33.99,0 -67.99,0.01 -101.98,-0.05c-2.04,0 -4.61,0.96 -5.93,-1.4c-1.38,-2.45 0.37,-4.49 1.67,-6.38c11.72,-17 23.45,-34 35.24,-50.95c20.36,-29.26 40.78,-58.47 61.11,-87.75c2.11,-3.05 5.01,-5.71 5.87,-9.53c-1.83,-1.49 -3.74,-0.93 -5.49,-0.94c-15.17,-0.05 -30.33,-0.15 -45.5,0.03c-4.62,0.05 -9.34,0.5 -13.84,1.51c-10.84,2.44 -14.89,10.82 -17,20.63c-0.52,2.43 -0.9,4.9 -1.51,7.32c-0.49,1.9 -1.91,2.67 -3.83,2.29c-1.94,-0.38 -2.14,-1.88 -2.02,-3.46c0.92,-11.43 1.93,-22.86 2.75,-34.3c0.26,-3.62 1.93,-4.76 5.44,-4.75c37.66,0.08 75.32,0.04 112.98,0.06c1.43,0 3.05,-0.39 4.33,1.43c-0.79,3.86 -4.14,6.43 -6.21,10.13z" fill="#000000" id="svg_2" opacity="1"></path>
  <path d="m967.36,137.28c11.95,-0.3 23.51,1.03 34.9,-0.63c12.78,-1.86 16.89,-6.61 18.56,-19.54c0.07,-0.49 0.07,-0.99 0.1,-1.49c0.13,-1.95 1.02,-3.16 3.11,-3.07c1.99,0.08 2.41,1.49 2.44,3.12c0.04,2.83 0.05,5.66 0.05,8.49c0,13.83 0.02,27.66 -0.03,41.49c-0.01,1.86 0.65,4.4 -2.4,4.58c-2.64,0.16 -2.96,-1.9 -3.46,-3.97c-3.95,-16.29 -7.85,-19.26 -24.92,-19.26c-10.33,0 -20.66,0.13 -30.99,-0.05c-3.89,-0.06 -5.26,1.32 -5.21,5.24c0.26,18.82 0.25,37.64 0.46,56.46c0.08,7.17 2.68,10.42 9.23,10.5c13.65,0.18 27.31,-0.24 40.96,-0.26c14.22,-0.02 23.61,-7.71 30.76,-19.04c2.22,-3.52 4.3,-7.13 6.36,-10.74c1.22,-2.12 2.9,-3.47 5.3,-2.4c2.55,1.13 0.95,3.13 0.41,4.72c-3.8,11.18 -7.73,22.32 -11.41,33.53c-1.02,3.09 -2.74,4.09 -5.86,4.09c-39.82,-0.07 -79.63,-0.04 -119.45,-0.07c-1.92,0 -4.43,0.45 -4.57,-2.5c-0.14,-3.17 2.39,-3.08 4.59,-3.12c2.66,-0.04 5.28,-0.07 7.9,-0.85c7.58,-2.28 10.2,-5.76 10.73,-13.63c2.25,-33.62 -0.2,-67.25 0.31,-100.88c0.12,-8.45 0.61,-16.89 -0.22,-25.4c-1.05,-10.82 -5.05,-15.25 -16.01,-15.61c-1.49,-0.04 -2.99,-0.04 -4.49,-0.06c-1.8,-0.02 -2.89,-0.87 -2.86,-2.71c0.03,-1.8 1.19,-2.67 2.9,-2.79c1.33,-0.09 2.67,-0.08 4,-0.08c38.32,-0.01 76.64,-0.01 114.96,0c6.83,0 6.69,0.13 7.07,6.99c0.5,8.97 1.13,17.93 0.98,26.93c-0.03,1.76 0.68,3.92 -2.09,4.22c-2.57,0.28 -3.39,-1.45 -3.91,-3.6c-0.83,-3.38 -1.67,-6.78 -2.74,-10.09c-2.77,-8.63 -9.13,-13.67 -18.11,-13.8c-16.82,-0.24 -33.65,-0.13 -50.47,-0.27c-3.36,-0.03 -4.74,1.09 -4.72,4.63c0.12,18.66 0.21,37.33 -0.05,55.98c-0.08,6.25 3.98,4.76 7.89,4.94z" fill="#000000" id="svg_3" opacity="1"></path>
  <path d="m139.09,135.76c7.81,18.03 15.44,35.72 22.96,53.16c2.36,0.14 2.32,-1.4 2.7,-2.34c12.89,-31.6 25.77,-63.21 38.56,-94.86c1.31,-3.23 2.2,-6.63 3.08,-10.01c1.83,-6.98 -0.34,-11.19 -7.06,-13.76c-1.86,-0.71 -3.84,-1.07 -5.76,-1.61c-2.03,-0.58 -3.8,-1.32 -3.47,-4.02c0.33,-2.69 2.31,-2.42 4.11,-2.43c7.67,-0.03 15.33,-0.02 23,-0.01c6.83,0 13.67,-0.01 20.5,0.02c1.69,0.01 3.44,0.08 3.9,2.25c0.49,2.3 -0.85,3.55 -2.81,3.97c-12.03,2.59 -17.17,12.05 -21.29,22.02c-18.46,44.78 -36.66,89.66 -54.96,134.5c-0.63,1.54 -1.3,3.07 -1.95,4.6c-0.74,1.72 -1.51,3.23 -3.85,3.29c-2.47,0.06 -3.6,-1.28 -4.45,-3.25c-3.3,-7.65 -6.62,-15.28 -9.94,-22.92c-17.69,-40.77 -35.45,-81.51 -53.01,-122.34c-3.81,-8.85 -9.64,-14.57 -19.42,-15.88c-1.88,-0.26 -4.37,-0.55 -4.23,-3.3c0.15,-3.01 2.64,-2.95 4.85,-2.96c19.5,-0.01 38.99,-0.01 58.49,0.02c1.91,0.01 4.26,-0.43 4.66,2.48c0.44,3.18 -2.06,3.52 -4.14,3.78c-14.69,1.83 -16.09,8.29 -11.15,21.01c6.32,16.29 13.62,32.19 20.68,48.59z" fill="#000000" id="svg_4" opacity="1"></path>
  <path d="m661.31,61.43c14.99,0 29.48,-0.01 43.97,0c1.33,0 2.68,-0.02 3.99,0.16c1.76,0.24 2.58,1.39 2.45,3.16c-0.13,1.67 -1.26,2.15 -2.74,2.29c-3.14,0.28 -6.3,0.51 -9.42,0.97c-10.53,1.58 -14.87,6.5 -14.91,17.1c-0.11,27.81 -0.16,55.63 -0.18,83.44c-0.01,12.16 0.04,24.32 0.17,36.48c0.1,9.03 3.37,12.27 12.45,12.36c10.82,0.1 21.67,-0.28 32.48,0.15c20.34,0.82 33.29,-9.14 41.1,-27.12c0.8,-1.83 1.68,-3.62 2.51,-5.44c0.76,-1.64 1.8,-2.98 3.82,-2.23c2.12,0.78 1.75,2.69 1.34,4.26c-0.76,2.89 -1.81,5.7 -2.7,8.56c-3.04,9.85 -6.12,19.69 -9.08,29.57c-0.84,2.82 -2.41,3.99 -5.4,3.99c-40.14,-0.06 -80.28,-0.03 -120.43,-0.06c-1.92,0 -4.41,0.36 -4.49,-2.59c-0.08,-3.24 2.54,-3.04 4.67,-3c4.56,0.08 8.96,-0.23 12.84,-3.06c2.86,-2.08 4.72,-4.83 5.1,-8.25c0.6,-5.28 1.1,-10.6 1.11,-15.91c0.1,-30.64 0.03,-61.29 0.06,-91.94c0.01,-7.66 -0.18,-15.28 -0.88,-22.92c-0.79,-8.55 -5.08,-13.27 -13.76,-14.25c-0.66,-0.07 -1.36,0.07 -1.99,-0.09c-2.53,-0.66 -7.11,1.82 -6.96,-2.98c0.13,-4.11 4.37,-2.48 6.89,-2.58c5.82,-0.22 11.66,-0.07 17.99,-0.07z" fill="#000000" id="svg_5" opacity="1"></path>
  <path d="m419,38.31c2.7,-8.81 5.36,-17.2 7.81,-25.66c0.97,-3.35 2.59,-4.97 6.33,-4.83c7.22,0.26 14.46,0.07 21.37,0.07c0.88,2.76 -0.38,3.77 -1.33,4.87c-10.12,11.71 -20.27,23.39 -30.35,35.14c-1.79,2.09 -3.62,3.34 -6.58,1.86c-0.07,-3.98 1.8,-7.41 2.75,-11.45z" fill="#000000" id="svg_6" opacity="1"></path>
 </g>
<script xmlns=""></script><link xmlns=""></link></svg>